<svg width="251" height="166" viewBox="0 0 251 166" fill="none" xmlns="http://www.w3.org/2000/svg">
<path d="M39.1406 135.793L6.00586 157.373H4.98633C3.85352 157.373 2.7207 157.09 1.58789 156.523C0.568359 155.957 0.0585938 154.994 0.0585938 153.635C0.0585938 152.729 0.285156 151.936 0.738281 151.256C1.30469 150.463 1.98438 149.783 2.77734 149.217C3.68359 148.537 5.32617 147.518 7.70508 146.158C10.084 144.799 12.5762 143.326 15.1816 141.74C17.7871 140.041 20.2793 138.512 22.6582 137.152C25.1504 135.793 26.8496 134.83 27.7559 134.264C28.209 133.811 28.8887 133.301 29.7949 132.734C30.7012 132.055 31.4941 131.432 32.1738 130.865C32.9668 130.186 33.6465 129.619 34.2129 129.166C34.7793 128.713 35.0625 128.43 35.0625 128.316L21.9785 101.809C21.4121 101.016 21.0723 100.393 20.959 99.9395C20.959 99.373 20.959 98.6367 20.959 97.7305C20.959 94.332 22.6016 92.6328 25.8867 92.6328C26.3398 92.6328 27.3594 92.9727 28.9453 93.6523C30.6445 94.2188 32.6836 95.0684 35.0625 96.2012C37.4414 97.2207 39.9336 98.3535 42.5391 99.5996C45.1445 100.846 47.5234 101.979 49.6758 102.998C51.8281 104.018 53.6406 104.924 55.1133 105.717C56.5859 106.396 57.3223 106.736 57.3223 106.736L72.4453 91.1035C72.7852 89.7441 73.748 88.1016 75.334 86.1758C77.0332 84.25 78.7891 82.2109 80.6016 80.0586C82.4141 77.9062 84 75.7539 85.3594 73.6016C86.7188 71.3359 87.3984 69.2969 87.3984 67.4844V66.9746L75.6738 39.6172C74.541 37.0117 73.8047 34.2363 73.4648 31.291C73.2383 28.2324 73.125 25.2305 73.125 22.2852C73.125 19.793 73.5215 17.3008 74.3145 14.8086C75.1074 12.2031 76.2402 9.88086 77.7129 7.8418C79.2988 5.80273 81.168 4.16016 83.3203 2.91406C85.4727 1.55469 88.0215 0.875 90.9668 0.875C94.0254 0.875 96.5176 1.78125 98.4434 3.59375C100.482 5.29297 102.068 7.44531 103.201 10.0508C104.447 12.6562 105.297 15.4316 105.75 18.377C106.203 21.209 106.43 23.8145 106.43 26.1934C106.43 32.9902 105.637 39.5039 104.051 45.7344C102.578 51.8516 100.539 58.1387 97.9336 64.5957V66.9746C100.539 71.8457 103.201 76.8867 105.92 82.0977C108.639 87.3086 111.074 92.7461 113.227 98.4102C115.379 103.961 117.135 109.568 118.494 115.232C119.854 120.783 120.533 126.391 120.533 132.055C120.533 136.473 119.797 140.607 118.324 144.459C116.965 148.197 114.982 151.482 112.377 154.314C109.771 157.146 106.6 159.355 102.861 160.941C99.2363 162.527 95.1582 163.32 90.627 163.32C85.5293 163.32 80.6582 162.584 76.0137 161.111C71.4824 159.525 67.0645 157.486 62.7598 154.994C58.5684 152.389 54.5469 149.443 50.6953 146.158C46.957 142.873 43.4453 139.418 40.1602 135.793H39.1406ZM47.6367 130.016C47.6367 130.129 47.9199 130.525 48.4863 131.205C49.166 131.885 49.9023 132.678 50.6953 133.584C51.6016 134.377 52.5078 135.227 53.4141 136.133C54.3203 137.039 55.1133 137.775 55.793 138.342C56.1328 138.682 56.6992 139.191 57.4922 139.871C58.3984 140.438 59.248 141.117 60.041 141.91C60.9473 142.59 61.7402 143.27 62.4199 143.949C63.2129 144.516 63.7227 144.855 63.9492 144.969C64.6289 145.309 65.6484 145.875 67.0078 146.668C68.3672 147.461 69.7266 148.254 71.0859 149.047C72.4453 149.84 73.748 150.576 74.9941 151.256C76.2402 151.936 76.9766 152.332 77.2031 152.445C79.8086 153.578 82.1875 154.314 84.3398 154.654C86.6055 154.881 88.8711 154.994 91.1367 154.994C94.5352 154.994 97.4238 154.371 99.8027 153.125C102.295 151.766 104.334 150.01 105.92 147.857C107.506 145.592 108.639 143.043 109.318 140.211C110.111 137.266 110.508 134.32 110.508 131.375C110.508 128.203 110.225 124.918 109.658 121.52C109.205 118.121 108.412 114.893 107.279 111.834L92.4961 76.3203L79.0723 95.1816L47.6367 129.336V130.016ZM34.3828 107.586C34.3828 107.812 34.4395 108.266 34.5527 108.945C34.7793 109.512 34.9492 109.908 35.0625 110.135C35.5156 110.928 36.082 112.004 36.7617 113.363C37.5547 114.723 38.291 116.025 38.9707 117.271C39.7637 118.404 40.3867 119.48 40.8398 120.5C41.4062 121.406 41.7461 121.859 41.8594 121.859H42.5391C42.8789 121.859 43.5586 121.406 44.5781 120.5C45.5977 119.48 46.6738 118.461 47.8066 117.441C48.9395 116.309 49.959 115.289 50.8652 114.383C51.7715 113.363 52.2812 112.797 52.3945 112.684L51.5449 111.834L36.7617 107.586H34.3828ZM82.1309 22.1152C82.1309 28.459 83.0938 34.2363 85.0195 39.4473C86.9453 44.5449 89.3809 49.8691 92.3262 55.4199C92.8926 55.0801 93.4023 54.4004 93.8555 53.3809C94.3086 52.248 94.7051 51.0586 95.0449 49.8125C95.3848 48.4531 95.668 47.207 95.8945 46.0742C96.1211 44.9414 96.291 44.2617 96.4043 44.0352C96.4043 43.8086 96.4609 43.2422 96.5742 42.3359C96.8008 41.4297 96.9707 40.4102 97.084 39.2773C97.1973 38.0312 97.3105 36.8418 97.4238 35.709C97.6504 34.5762 97.8203 33.7266 97.9336 33.1602V32.6504C97.9336 32.1973 97.877 30.7812 97.7637 28.4023C97.7637 26.0234 97.5938 23.4746 97.2539 20.7559C96.9141 17.9238 96.291 15.4316 95.3848 13.2793C94.4785 11.0137 93.1191 9.88086 91.3066 9.88086C89.4941 9.88086 87.9648 10.2207 86.7188 10.9004C85.4727 11.5801 84.5098 12.4863 83.8301 13.6191C83.2637 14.752 82.8105 16.0547 82.4707 17.5273C82.2441 19 82.1309 20.5293 82.1309 22.1152ZM164.373 156.523C164.146 157.316 163.467 158.109 162.334 158.902C161.201 159.582 160.182 159.922 159.275 159.922C158.143 159.922 157.18 159.525 156.387 158.732C155.594 157.939 155.197 156.977 155.197 155.844C155.197 155.73 155.197 155.447 155.197 154.994C155.311 154.541 155.367 154.258 155.367 154.145L165.732 112.684H164.373C160.182 114.383 156.217 115.912 152.479 117.271C148.74 118.631 144.719 119.311 140.414 119.311C138.602 119.311 136.902 118.971 135.316 118.291C133.844 117.498 132.541 116.479 131.408 115.232C130.389 113.873 129.539 112.4 128.859 110.814C128.293 109.115 128.01 107.359 128.01 105.547C128.01 102.035 128.633 98.6367 129.879 95.3516C131.125 91.9531 132.881 88.9512 135.146 86.3457C137.525 83.7402 140.244 81.6445 143.303 80.0586C146.475 78.4727 149.93 77.6797 153.668 77.6797C156.613 77.6797 159.502 78.0762 162.334 78.8691C165.166 79.5488 167.771 80.8516 170.15 82.7773L171.68 79.3789L179.156 31.4609C179.383 30.5547 180.006 29.6484 181.025 28.7422C182.045 27.7227 182.951 27.2129 183.744 27.2129C185.783 27.2129 187.199 28.0625 187.992 29.7617C188.898 31.3477 189.352 33.0469 189.352 34.8594V35.5391L180.006 89.5742V93.3125C180.232 93.3125 180.402 93.3691 180.516 93.4824C180.742 93.5957 180.912 93.5957 181.025 93.4824C181.139 93.4824 181.365 93.3691 181.705 93.1426C182.158 92.8027 182.611 92.4629 183.064 92.123C183.631 91.7832 184.141 91.4434 184.594 91.1035C185.16 90.7637 185.557 90.4805 185.783 90.2539C185.896 90.2539 186.066 90.1973 186.293 90.084C186.52 89.8574 186.689 89.6875 186.803 89.5742C193.939 84.3633 201.02 78.9824 208.043 73.4316C215.18 67.8809 221.863 61.877 228.094 55.4199C228.887 54.627 230.076 53.041 231.662 50.6621C233.248 48.1699 234.947 45.6211 236.76 43.0156C238.686 40.4102 240.498 38.0879 242.197 36.0488C243.896 34.0098 245.312 32.9902 246.445 32.9902C247.578 32.9902 248.541 33.3867 249.334 34.1797C250.24 34.9727 250.693 35.9922 250.693 37.2383C250.693 37.4648 250.637 37.6348 250.523 37.748C250.523 37.8613 250.523 37.9746 250.523 38.0879C250.523 38.3145 250.41 38.7676 250.184 39.4473C249.957 40.0137 249.787 40.4102 249.674 40.6367C249.334 41.3164 248.768 42.2793 247.975 43.5254C247.295 44.6582 246.559 45.791 245.766 46.9238C245.086 48.0566 244.463 49.0762 243.896 49.9824C243.33 50.7754 243.047 51.2285 243.047 51.3418L221.637 72.9219L182.555 101.809C182.102 102.262 181.818 102.602 181.705 102.828C181.705 102.941 181.705 103.281 181.705 103.848V104.697C181.705 104.924 181.762 105.094 181.875 105.207L213.99 153.635C214.217 154.654 214.613 155.504 215.18 156.184C215.746 156.863 216.312 157.543 216.879 158.223C217.445 158.789 217.898 159.469 218.238 160.262C218.691 160.941 218.918 161.791 218.918 162.811C218.918 164.057 218.691 164.736 218.238 164.85C217.898 165.076 217.105 165.189 215.859 165.189C214.613 165.189 213.424 164.85 212.291 164.17C211.158 163.49 210.082 162.641 209.062 161.621C208.043 160.488 207.137 159.299 206.344 158.053C205.664 156.693 205.154 155.504 204.814 154.484L175.248 117.611L164.373 156.523ZM136.166 103.168C136.166 105.207 136.619 107.076 137.525 108.775C138.432 110.361 140.018 111.154 142.283 111.154C144.549 111.154 146.814 110.871 149.08 110.305C151.346 109.738 153.555 109.002 155.707 108.096C157.859 107.189 159.955 106.17 161.994 105.037C164.033 103.904 165.959 102.828 167.771 101.809C167.771 101.582 167.771 101.129 167.771 100.449C167.885 99.6562 167.941 99.2031 167.941 99.0898C167.941 97.1641 167.432 95.4648 166.412 93.9922C165.506 92.4062 164.316 91.1035 162.844 90.084C161.484 88.9512 159.898 88.1582 158.086 87.7051C156.387 87.1387 154.688 86.8555 152.988 86.8555C150.723 86.8555 148.57 87.252 146.531 88.0449C144.492 88.8379 142.68 89.9707 141.094 91.4434C139.621 92.916 138.432 94.6719 137.525 96.7109C136.619 98.6367 136.166 100.789 136.166 103.168Z" fill="#3897D3"/>
</svg>
